<svg xmlns="http://www.w3.org/2000/svg" xmlns:xlink="http://www.w3.org/1999/xlink" width="500" zoomAndPan="magnify" viewBox="0 0 375 374.999991" height="500" preserveAspectRatio="xMidYMid meet" version="1.0"><defs><clipPath id="90caaaad9a"><path d="M 105 99 L 232 99 L 232 299.359375 L 105 299.359375 Z M 105 99 " clip-rule="nonzero"/></clipPath><clipPath id="aa387f1c41"><path d="M 263.253906 128.273438 L 311.542969 128.273438 L 311.542969 205.472656 L 263.253906 205.472656 Z M 263.253906 128.273438 " clip-rule="nonzero"/></clipPath><clipPath id="23f0809596"><path d="M 307 130.25 L 311.542969 130.25 L 311.542969 203.492188 L 307 203.492188 Z M 307 130.25 " clip-rule="nonzero"/></clipPath><clipPath id="acb41ba4ea"><path d="M 287.003906 128.273438 L 311.542969 128.273438 L 311.542969 205.472656 L 287.003906 205.472656 Z M 287.003906 128.273438 " clip-rule="nonzero"/></clipPath></defs><g clip-path="url(#90caaaad9a)"><path fill="#358c9c" d="M 150.078125 217.742188 L 113.109375 254.71875 C 102.894531 264.933594 102.894531 281.488281 113.109375 291.703125 C 123.3125 301.910156 139.863281 301.910156 150.078125 291.703125 L 224.019531 217.742188 C 234.234375 207.527344 234.234375 190.972656 224.019531 180.757812 L 150.078125 106.800781 C 139.863281 96.585938 123.3125 96.585938 113.109375 106.800781 C 102.894531 117.015625 102.894531 133.570312 113.109375 143.785156 L 150.078125 180.757812 C 160.289062 190.972656 160.289062 207.527344 150.078125 217.742188 " fill-opacity="1" fill-rule="nonzero"/></g><path fill="#358c9c" d="M 112.003906 206.277344 L 97.941406 220.332031 C 94.066406 224.214844 94.066406 230.507812 97.941406 234.390625 C 101.820312 238.273438 108.121094 238.273438 112.003906 234.390625 L 140.105469 206.277344 C 143.984375 202.394531 143.984375 196.101562 140.105469 192.21875 L 112.003906 164.105469 C 108.121094 160.222656 101.820312 160.222656 97.941406 164.105469 C 94.066406 167.984375 94.066406 174.28125 97.941406 178.160156 L 112.003906 192.21875 C 115.875 196.101562 115.875 202.394531 112.003906 206.277344 " fill-opacity="1" fill-rule="nonzero"/><path fill="#2c7380" d="M 104.976562 237.296875 C 104.292969 237.296875 103.605469 237.230469 102.933594 237.089844 C 104.765625 236.703125 106.503906 235.8125 107.929688 234.390625 L 136.039062 206.277344 C 139.910156 202.394531 139.910156 196.101562 136.039062 192.21875 L 107.929688 164.105469 C 106.503906 162.6875 104.765625 161.792969 102.933594 161.414062 C 103.605469 161.273438 104.292969 161.203125 104.976562 161.203125 C 107.519531 161.203125 110.0625 162.171875 112.003906 164.105469 L 140.105469 192.21875 C 142.042969 194.160156 143.019531 196.703125 143.019531 199.246094 C 143.019531 201.792969 142.042969 204.335938 140.105469 206.277344 L 112.003906 234.390625 C 110.0625 236.332031 107.519531 237.296875 104.976562 237.296875 " fill-opacity="1" fill-rule="nonzero"/><path fill="#2c7380" d="M 211.359375 230.410156 L 174.519531 193.5625 C 164.316406 183.351562 164.316406 166.796875 174.519531 156.582031 L 187.183594 143.914062 L 224.019531 180.757812 C 229.132812 185.863281 231.683594 192.558594 231.683594 199.246094 C 231.683594 205.945312 229.132812 212.632812 224.019531 217.742188 L 211.359375 230.410156 " fill-opacity="1" fill-rule="nonzero"/><path fill="#f68716" d="M 256.519531 148.523438 L 293.496094 111.539062 C 303.710938 101.332031 303.710938 84.769531 293.496094 74.5625 C 283.285156 64.347656 266.734375 64.347656 256.519531 74.5625 L 182.578125 148.523438 C 172.371094 158.730469 172.371094 175.292969 182.578125 185.5 L 256.519531 259.460938 C 266.734375 269.675781 283.285156 269.675781 293.496094 259.460938 C 303.710938 249.253906 303.710938 232.691406 293.496094 222.484375 L 256.519531 185.5 C 246.316406 175.292969 246.316406 158.730469 256.519531 148.523438 " fill-opacity="1" fill-rule="nonzero"/><g clip-path="url(#aa387f1c41)"><path fill="#f68716" d="M 294.601562 159.984375 L 308.65625 145.925781 C 312.539062 142.042969 312.539062 135.75 308.65625 131.867188 C 304.777344 127.984375 298.484375 127.984375 294.601562 131.867188 L 266.492188 159.984375 C 262.613281 163.863281 262.613281 170.160156 266.492188 174.039062 L 294.601562 202.15625 C 298.484375 206.035156 304.777344 206.035156 308.65625 202.15625 C 312.539062 198.273438 312.539062 191.980469 308.65625 188.097656 L 294.601562 174.039062 C 290.722656 170.160156 290.722656 163.863281 294.601562 159.984375 " fill-opacity="1" fill-rule="nonzero"/></g><g clip-path="url(#23f0809596)"><path fill="#d3d2d2" d="M 307.496094 203.152344 C 307.898438 202.851562 308.292969 202.519531 308.65625 202.15625 C 310.597656 200.214844 311.5625 197.671875 311.5625 195.125 C 311.5625 197.671875 310.597656 200.214844 308.65625 202.15625 C 308.292969 202.519531 307.898438 202.851562 307.496094 203.152344 M 308.65625 131.867188 C 308.316406 131.527344 307.953125 131.210938 307.574219 130.925781 C 307.953125 131.210938 308.316406 131.527344 308.65625 131.867188 " fill-opacity="1" fill-rule="nonzero"/></g><g clip-path="url(#acb41ba4ea)"><path fill="#cb6e11" d="M 301.636719 205.0625 C 300.949219 205.0625 300.269531 204.992188 299.597656 204.847656 C 301.421875 204.46875 303.160156 203.570312 304.582031 202.15625 C 308.464844 198.273438 308.464844 191.980469 304.582031 188.097656 L 290.527344 174.039062 C 286.648438 170.160156 286.648438 163.863281 290.527344 159.984375 L 304.582031 145.925781 C 308.464844 142.042969 308.464844 135.75 304.582031 131.867188 C 303.160156 130.445312 301.421875 129.554688 299.597656 129.167969 C 300.269531 129.03125 300.949219 128.960938 301.636719 128.960938 C 303.726562 128.960938 305.820312 129.617188 307.574219 130.925781 C 307.953125 131.210938 308.316406 131.527344 308.65625 131.867188 C 310.597656 133.808594 311.5625 136.351562 311.5625 138.898438 C 311.5625 141.441406 310.597656 143.984375 308.65625 145.925781 L 294.601562 159.984375 C 292.664062 161.921875 291.6875 164.46875 291.6875 167.011719 C 291.6875 169.554688 292.664062 172.097656 294.601562 174.039062 L 308.65625 188.097656 C 310.597656 190.039062 311.5625 192.582031 311.5625 195.125 C 311.5625 197.671875 310.597656 200.214844 308.65625 202.15625 C 308.292969 202.519531 307.898438 202.851562 307.496094 203.152344 C 305.757812 204.429688 303.695312 205.0625 301.636719 205.0625 " fill-opacity="1" fill-rule="nonzero"/></g></svg>